HIERARCHY
ROOT Pelvis
{
	OFFSET 0.000000 0.000000 0.000000
	CHANNELS 6 Xposition Yposition Zposition Zrotation Yrotation Xrotation 
	JOINT Left_hip
	{
		OFFSET 0.069463 -0.088608 -0.009542
		CHANNELS 3 Zrotation Yrotation Xrotation
		JOINT Left_knee
		{
			OFFSET 0.030639 -0.359740 -0.005288
			CHANNELS 3 Zrotation Yrotation Xrotation
			JOINT Left_ankle
			{
				OFFSET -0.011068 -0.376034 -0.042462
				CHANNELS 3 Zrotation Yrotation Xrotation
				JOINT Left_foot
				{
					OFFSET 0.023192 -0.053321 0.111332
					CHANNELS 3 Zrotation Yrotation Xrotation
					End Site
					{
						OFFSET 0.000000 0.000000 0.000000
					}
				}
			}
		}
	}
	JOINT Right_hip
	{
		OFFSET -0.067438 -0.088025 -0.006263
		CHANNELS 3 Zrotation Yrotation Xrotation
		JOINT Right_knee
		{
			OFFSET -0.035962 -0.366229 -0.008063
			CHANNELS 3 Zrotation Yrotation Xrotation
			JOINT Right_ankle
			{
				OFFSET 0.013608 -0.375719 -0.040481
				CHANNELS 3 Zrotation Yrotation Xrotation
				JOINT Right_foot
				{
					OFFSET -0.021034 -0.045527 0.114617
					CHANNELS 3 Zrotation Yrotation Xrotation
					End Site
					{
						OFFSET 0.000000 0.000000 0.000000
					}
				}
			}
		}
	}
	JOINT Spine1
	{
		OFFSET -0.002610 0.101823 -0.019986
		CHANNELS 3 Zrotation Yrotation Xrotation
		JOINT Spine2
		{
			OFFSET 0.004114 0.128714 -0.000938
			CHANNELS 3 Zrotation Yrotation Xrotation
			JOINT Spine3
			{
				OFFSET 0.002191 0.048470 0.027684
				CHANNELS 3 Zrotation Yrotation Xrotation
				JOINT Neck
				{
					OFFSET -0.002856 0.198873 -0.044022
					CHANNELS 3 Zrotation Yrotation Xrotation
					JOINT Head
					{
						OFFSET 0.002981 0.062960 0.049860
						CHANNELS 3 Zrotation Yrotation Xrotation
						End Site
						{
							OFFSET 0.000000 0.000000 0.000000
						}
					}
				}
				JOINT Left_collar
				{
					OFFSET 0.073708 0.112550 -0.033440
					CHANNELS 3 Zrotation Yrotation Xrotation
					JOINT Left_shoulder
					{
						OFFSET 0.083291 0.030786 -0.008013
						CHANNELS 3 Zrotation Yrotation Xrotation
						JOINT Left_elbow
						{
							OFFSET 0.245601 -0.011792 -0.027873
							CHANNELS 3 Zrotation Yrotation Xrotation
							JOINT Left_wrist
							{
								OFFSET 0.232258 0.008622 -0.000487
								CHANNELS 3 Zrotation Yrotation Xrotation
								JOINT Left_palm
								{
									OFFSET 0.077300 -0.009457 -0.012851
									CHANNELS 3 Zrotation Yrotation Xrotation
									End Site
									{
										OFFSET 0.000000 0.000000 0.000000
									}
								}
							}
						}
					}
				}
				JOINT Right_collar
				{
					OFFSET -0.075339 0.110574 -0.037874
					CHANNELS 3 Zrotation Yrotation Xrotation
					JOINT Right_shoulder
					{
						OFFSET -0.086522 0.031207 -0.009986
						CHANNELS 3 Zrotation Yrotation Xrotation
						JOINT Right_elbow
						{
							OFFSET -0.237313 -0.011478 -0.019859
							CHANNELS 3 Zrotation Yrotation Xrotation
							JOINT Right_wrist
							{
								OFFSET -0.237599 0.007976 -0.003742
								CHANNELS 3 Zrotation Yrotation Xrotation
								JOINT Right_palm
								{
									OFFSET -0.076920 -0.006943 -0.009920
									CHANNELS 3 Zrotation Yrotation Xrotation
									End Site
									{
										OFFSET 0.000000 0.000000 0.000000
									}
								}
							}
						}
					}
				}
			}
		}
	}
}
MOTION
Frames: 6
Frame Time: 0.100000
-0.710842 0.033185 2.360070 -162.808396 26.021525 9.735308 -2.486489 36.022195 -93.707458 3.448133 48.685258 106.323463 -20.887888 -3.243627 5.823602 28.509921 6.860946 -25.038953 -19.229385 -19.801071 -43.873185 -2.343562 -11.166620 139.322721 5.729917 -8.317393 -18.016477 -30.852791 0.125493 -15.817981 11.966192 -10.710378 55.429904 2.555466 -11.568752 -13.460447 4.870915 -0.012821 -0.670333 0.256146 -24.981983 -16.135210 7.796518 -12.395478 -27.123478 -25.970794 -46.164308 7.894070 -26.681518 -31.369279 -3.978067 57.088984 -59.158273 -26.898782 30.850950 -11.733694 8.421803 -22.924101 -21.435011 -7.550140 3.137449 41.986360 -9.140086 0.560444 16.097874 -26.032348 -49.249576 56.571104 -37.077614 -31.285029 12.062008 5.216261 16.647530 16.792514 -11.911252 
-0.708337 0.032965 2.359977 -161.935467 27.277901 11.907009 -4.076875 35.700237 -94.089614 4.140643 49.930800 106.065491 -20.945058 -4.170255 6.105829 26.510285 6.137761 -24.719335 -19.795177 -21.295652 -45.321249 -2.570168 -11.264000 139.530179 6.412660 -7.269456 -12.918826 -26.949549 0.580667 -16.273364 12.849221 -11.408350 54.169600 2.745089 -11.252316 -13.495777 4.621295 -0.068260 -1.048559 0.647694 -25.303993 -15.834249 7.058300 -12.759708 -27.643630 -27.762943 -45.984099 8.663414 -25.189021 -30.907894 -3.629627 53.225953 -59.839865 -24.238698 31.955796 -13.808161 10.036181 -22.272034 -22.164152 -7.644504 4.055958 38.769153 -7.398938 -1.498036 9.108687 -26.077897 -37.226175 50.490738 -22.763983 -31.558149 14.065989 15.111603 16.225332 18.860900 -14.504283 
-0.706686 0.028043 2.362869 -161.698850 27.503812 11.792039 -3.804792 35.514432 -93.554693 3.393676 49.438564 105.461156 -21.350265 -3.859537 6.240169 25.969792 5.556287 -24.807354 -19.507734 -21.557796 -44.405080 -2.584037 -11.265536 138.650674 4.973278 -8.030576 -12.752867 -24.048818 1.583335 -15.426661 12.789290 -11.206288 53.343395 2.374054 -11.214391 -12.751507 4.316593 -0.201053 -1.513791 1.099994 -25.585036 -15.420885 6.900994 -12.968962 -27.842127 -28.956374 -45.143687 9.296554 -24.488070 -30.924250 -3.352735 47.073926 -59.857041 -19.236178 32.422215 -15.428895 12.151697 -21.642121 -22.077667 -7.052018 4.655432 36.527319 -6.116006 -2.833926 5.029606 -25.875952 -28.571187 42.949761 -11.606974 -31.571183 15.861530 23.422047 15.740034 20.014504 -14.999652 
-0.706791 0.019670 2.374595 -162.114531 27.721501 9.946136 -2.276627 34.976909 -91.542425 2.352374 48.198713 105.280478 -20.205713 -3.484142 4.979243 25.261973 5.365430 -23.963837 -19.270750 -21.084013 -40.501341 -2.544246 -11.396332 136.663118 3.672898 -8.571051 -12.702318 -21.362187 1.473746 -14.797667 12.118719 -10.189497 51.400792 2.207434 -11.593030 -11.394582 3.966008 -0.660122 -1.890641 0.970232 -25.306827 -14.570829 6.630552 -13.291919 -27.980641 -30.155981 -44.323833 10.197982 -25.052003 -30.472071 -2.059867 39.248799 -58.133644 -12.811261 31.705777 -15.497866 12.631816 -21.290732 -21.217339 -6.794591 5.774269 35.384580 -5.363158 -0.387687 3.654885 -22.989598 -23.308934 40.793017 -6.558194 -30.699120 14.979031 22.373354 16.173390 19.656373 -13.737309 
-0.706658 0.009588 2.390668 -163.281559 27.247469 6.717751 0.706356 35.346216 -88.008511 2.060953 46.739305 106.195442 -17.965924 -3.917203 3.920190 23.787436 7.040322 -23.470239 -18.753361 -19.222241 -34.801171 -2.269935 -11.531258 133.680492 4.112722 -7.645267 -13.225354 -22.371752 -1.128640 -14.573751 10.363562 -8.742848 49.553703 2.653204 -12.655984 -10.792696 4.001091 -1.920468 -1.094306 -0.451698 -23.430176 -13.195396 6.146893 -13.491401 -27.890351 -29.690145 -43.868751 10.899519 -27.010064 -27.401431 -1.039665 37.783098 -57.236345 -9.969523 27.972629 -13.579322 11.331657 -21.817201 -19.851739 -7.195256 7.130396 35.489392 -6.199204 7.725417 4.972493 -17.468242 -30.559182 59.195588 -12.879384 -27.102793 12.791503 11.133974 18.324103 16.882298 -11.144256 
-0.707491 0.003763 2.402079 -163.742087 26.279956 5.039383 3.024249 35.336386 -85.905302 3.104823 45.913472 107.822813 -14.819842 -5.162258 2.351653 20.565311 9.567080 -22.619120 -18.453835 -17.522540 -31.617646 -2.471469 -11.182664 132.043872 5.420647 -5.708535 -13.462649 -23.322195 -4.437984 -14.257899 8.973833 -7.764466 48.147596 2.677830 -13.360876 -11.201963 3.819273 -2.571802 -0.286766 -1.704760 -21.512421 -10.664571 5.918682 -13.758911 -28.486715 -27.644431 -45.005632 10.546155 -30.059100 -23.493077 0.033006 42.367773 -58.725952 -10.296582 26.280520 -13.200852 10.141284 -21.288953 -17.981876 -6.506405 6.060344 37.281543 -7.373971 14.266275 7.436053 -12.646393 -75.754138 81.199824 -49.888407 -27.483042 15.378924 8.482947 19.444066 13.840584 -9.537735 
